# xmcd
#
# Track frame offsets: 
#        150
#        12229
#        24218
#        37880
#        47339
#        57025
#        68086
#        82646
#        91540
#        104996
#        114358
#        124807
#        137332
#        151967
#        164063
#        174810
#        186440
#        200288
#        216603
#        235902
#        255494
#        274083
#        296238
#
# Disc length: 4229 seconds
#
# Revision: 0
# Processed by: cddbd v1.5.2PL0 Copyright (c) Steve Scherf et al.
# Submitted via: ExactAudioCopy v0.95b3
#
DISCID=32108317
DTITLE=Cliff Richard  - They Said It Wouldn't Last - The Hits - Number
DTITLE=Ones Around The World - Disc 5
DYEAR=1900
DGENRE=
TTITLE0=Living Doll
TTITLE1=Travelling Light
TTITLE2=Please Don't Tease
TTITLE3=I Love You
TTITLE4=Theme For A Dream
TTITLE5=When The Girl In Your Arms
TTITLE6=The Young Ones
TTITLE7=It'll Be Me
TTITLE8=The Next Time
TTITLE9=Bachelor Boy
TTITLE10=Summer Holiday
TTITLE11=Lucky Lips
TTITLE12=It's All In The Game
TTITLE13=Constantly
TTITLE14=The Minute You're Gone
TTITLE15=Congratulations
TTITLE16=Power To All Our Friends
TTITLE17=Devil Woman
TTITLE18=We Dont Talk Any More
TTITLE19=Living Doll (with The Young Ones)
TTITLE20=Mistletoe And Wine
TTITLE21=Saviour's Day
TTITLE22=The Millennium Prayer
EXTD=
EXTT0=
EXTT1=
EXTT2=
EXTT3=
EXTT4=
EXTT5=
EXTT6=
EXTT7=
EXTT8=
EXTT9=
EXTT10=
EXTT11=
EXTT12=
EXTT13=
EXTT14=
EXTT15=
EXTT16=
EXTT17=
EXTT18=
EXTT19=
EXTT20=
EXTT21=
EXTT22=
PLAYORDER=
